<svg width="214" height="234" viewBox="0 0 214 234" fill="none" xmlns="http://www.w3.org/2000/svg">
<path fill-rule="evenodd" clip-rule="evenodd" d="M127.226 24.0966L205.659 102.521C216.779 113.64 216.779 131.851 205.659 142.97L127.226 221.395C116.106 232.514 97.8934 232.514 86.773 221.395L8.34028 142.959C-2.78009 131.84 -2.78009 113.629 8.34028 102.51L86.773 24.0853C97.8934 12.9661 116.106 12.966 127.226 24.0966Z" fill="#5FBD9B"/>
<g clip-path="url(#clip0_380_475)">
<path fill-rule="evenodd" clip-rule="evenodd" d="M106.992 232.285H24.6877C23.7369 190.289 56.1231 165.913 83.929 156.819C86.1901 145.1 85.6103 129.91 85.6103 129.91H107.004H128.398C128.398 129.91 127.818 145.1 130.079 156.819C157.885 165.913 190.271 190.301 189.32 232.285H106.992Z" fill="#58556C"/>
<path fill-rule="evenodd" clip-rule="evenodd" d="M61.6893 96.2209C61.4921 94.0227 52.4825 91.4312 49.4908 98.6157C46.4876 105.8 51.8911 115.981 62.0951 116.779C72.2991 117.578 69.2959 115.784 69.2959 115.784L61.6893 96.2209Z" fill="#E4AE7C"/>
<path fill-rule="evenodd" clip-rule="evenodd" d="M152.527 96.2209C152.724 94.0227 161.734 91.4312 164.725 98.6157C167.729 105.8 162.325 115.981 152.121 116.779C141.917 117.578 144.92 115.784 144.92 115.784L152.527 96.2209Z" fill="#E4AE7C"/>
<path fill-rule="evenodd" clip-rule="evenodd" d="M128.653 144.972C119.389 162.65 95.5367 164.49 85.2979 145.655C85.5646 141.803 85.6574 138.17 85.669 135.37H128.329C128.34 138.008 128.421 141.374 128.653 144.972Z" fill="#D67F54"/>
<path fill-rule="evenodd" clip-rule="evenodd" d="M106.992 144.614C53.9199 145.886 27.1227 15.294 106.992 18.649C186.874 15.294 160.076 145.886 106.992 144.614Z" fill="#E4AE7C"/>
<path fill-rule="evenodd" clip-rule="evenodd" d="M89.17 84.0039C91.3035 85.5426 91.7789 88.5043 90.2367 90.6214C88.6945 92.7386 85.7145 93.2245 83.5925 91.6858C81.459 90.1471 80.9836 87.1854 82.5258 85.0682C84.0564 82.9395 87.0364 82.4652 89.17 84.0039Z" fill="#20201E"/>
<path fill-rule="evenodd" clip-rule="evenodd" d="M125.127 84.0039C122.993 85.5426 122.518 88.5043 124.06 90.6214C125.602 92.7386 128.582 93.2245 130.704 91.6858C132.838 90.1471 133.313 87.1854 131.771 85.0682C130.229 82.9395 127.26 82.4652 125.127 84.0039Z" fill="#20201E"/>
<path fill-rule="evenodd" clip-rule="evenodd" d="M83.3019 101.219C86.0152 103.29 86.1312 106.332 83.5686 108.01C81.006 109.687 76.7272 109.363 74.0255 107.281C71.3122 105.21 71.1962 102.167 73.7588 100.49C76.3214 98.824 80.5885 99.1479 83.3019 101.219Z" fill="#DA9077"/>
<path fill-rule="evenodd" clip-rule="evenodd" d="M130.983 101.219C128.269 103.29 128.153 106.332 130.716 108.01C133.279 109.687 137.557 109.363 140.259 107.281C142.972 105.21 143.088 102.167 140.526 100.49C137.975 98.824 133.696 99.1479 130.983 101.219Z" fill="#DA9077"/>
<path fill-rule="evenodd" clip-rule="evenodd" d="M91.2458 71.1275C91.0719 71.0465 90.8864 70.9771 90.7124 70.9077C88.6368 70.1673 86.8743 69.959 84.6364 70.121C82.4449 70.3524 80.7983 70.8498 78.9662 71.8911C78.1082 72.4464 74.7571 75.1536 75.7079 76.1485C76.0905 76.2526 79.43 74.552 80.4157 74.2396C81.9347 73.7884 83.1754 73.6149 84.7987 73.6496C86.3062 73.719 87.4425 73.9388 88.8108 74.4594C88.8456 74.471 89.1007 74.5751 89.147 74.5982C91.9416 75.9518 91.698 76.8311 93.5997 75.5238C96.5334 73.9735 93.5069 72.296 91.2458 71.1275Z" fill="#3F2716"/>
<path fill-rule="evenodd" clip-rule="evenodd" d="M122.751 71.1275C122.925 71.0465 123.11 70.9771 123.284 70.9077C125.36 70.1673 127.122 69.959 129.36 70.121C131.552 70.3524 133.187 70.8498 135.031 71.8911C135.889 72.4464 139.24 75.1536 138.289 76.1485C137.906 76.2526 134.567 74.552 133.581 74.2396C132.051 73.7884 130.821 73.6149 129.198 73.6496C127.691 73.719 126.554 73.9388 125.186 74.4594C125.151 74.471 124.896 74.5751 124.85 74.5982C122.055 75.9518 122.299 76.8311 120.397 75.5238C117.463 73.9735 120.49 72.296 122.751 71.1275Z" fill="#3F2716"/>
<path fill-rule="evenodd" clip-rule="evenodd" d="M104.499 127.249C104.233 127.087 104.14 126.74 104.291 126.463C104.453 126.185 104.801 126.104 105.079 126.254C105.868 126.717 106.876 126.949 107.885 126.949C108.894 126.949 109.88 126.717 110.645 126.254C110.912 126.092 111.271 126.173 111.433 126.451C111.596 126.717 111.515 127.076 111.236 127.238C110.286 127.816 109.091 128.094 107.885 128.094C106.691 128.106 105.473 127.828 104.499 127.249Z" fill="#D67F54"/>
<path fill-rule="evenodd" clip-rule="evenodd" d="M106.563 106.482C106.25 106.482 105.983 106.228 105.983 105.904C105.983 105.591 106.238 105.325 106.563 105.325C107.943 105.325 109.601 105.314 110.865 105.094C111.908 104.92 112.685 104.631 112.685 104.157C112.685 102.502 111.004 92.2405 111.004 92.2058C110.957 91.8935 111.166 91.6042 111.479 91.5464C111.792 91.5001 112.082 91.7084 112.14 92.0207C112.14 92.0554 113.845 102.421 113.845 104.145C113.845 105.348 112.662 105.938 111.062 106.216C109.682 106.459 107.989 106.482 106.563 106.482Z" fill="#D67F54"/>
<path fill-rule="evenodd" clip-rule="evenodd" d="M161.456 104.296C161.456 104.608 161.201 104.874 160.876 104.874C160.563 104.874 160.296 104.62 160.296 104.296C160.296 102.549 159.995 101.45 159.508 100.86C159.218 100.501 158.847 100.339 158.441 100.327C157.966 100.316 157.432 100.489 156.876 100.813C155.368 101.67 153.803 103.474 152.933 105.453C152.516 106.401 152.156 107.373 151.947 108.114C152.829 107.5 153.803 107.257 154.626 107.338C155.09 107.385 155.519 107.535 155.867 107.79C156.226 108.056 156.504 108.414 156.644 108.877C156.876 109.664 156.702 110.717 155.855 111.989C155.681 112.255 155.322 112.325 155.055 112.151C154.788 111.978 154.719 111.619 154.893 111.353C155.53 110.416 155.681 109.698 155.542 109.213C155.484 109.004 155.357 108.842 155.206 108.727C155.02 108.599 154.788 108.518 154.522 108.495C153.78 108.426 152.852 108.738 152.063 109.525C151.855 109.733 151.658 109.849 151.484 109.895C151.02 109.999 150.753 109.791 150.649 109.34L150.637 109.305C150.602 109.132 150.614 108.912 150.649 108.634C150.776 107.813 151.275 106.378 151.866 105.013C152.829 102.826 154.58 100.802 156.284 99.8416C157.015 99.4251 157.757 99.1937 158.441 99.2169C159.183 99.24 159.856 99.5292 160.377 100.177C161.062 100.929 161.456 102.26 161.456 104.296Z" fill="#D67F54"/>
<path fill-rule="evenodd" clip-rule="evenodd" d="M53.6889 104.296C53.6889 104.608 53.4338 104.874 53.1091 104.874C52.796 104.874 52.5294 104.62 52.5294 104.296C52.5294 102.271 52.9352 100.929 53.5729 100.143C54.0947 99.4948 54.7673 99.2056 55.5094 99.1825C56.1935 99.1709 56.9356 99.4023 57.6661 99.8072C59.3707 100.767 61.1332 102.792 62.084 104.979C62.687 106.344 63.174 107.79 63.3015 108.6C63.3479 108.866 63.3479 109.097 63.3131 109.271L63.3015 109.305C63.1972 109.757 62.9305 109.965 62.4667 109.861C62.2811 109.826 62.0956 109.699 61.8869 109.491C61.11 108.704 60.1708 108.391 59.4287 108.461C59.162 108.484 58.9301 108.565 58.7445 108.692C58.5822 108.808 58.4662 108.97 58.4083 109.178C58.2691 109.664 58.4199 110.381 59.0576 111.318C59.2315 111.585 59.162 111.943 58.8953 112.117C58.6286 112.29 58.2807 112.221 58.0952 111.955C57.2487 110.694 57.0632 109.641 57.3067 108.843C57.4458 108.392 57.7125 108.021 58.0836 107.755C58.4314 107.512 58.8605 107.362 59.3243 107.304C60.1476 107.223 61.1216 107.466 62.0028 108.079C61.7941 107.339 61.4347 106.367 61.0172 105.418C60.1592 103.451 58.5938 101.635 57.0748 100.779C56.5182 100.467 55.9732 100.282 55.5094 100.293C55.1035 100.305 54.7325 100.467 54.4426 100.825C53.9904 101.45 53.6889 102.549 53.6889 104.296Z" fill="#D67F54"/>
<path fill-rule="evenodd" clip-rule="evenodd" d="M165.734 29.5129C167.949 29.9409 167.659 31.7457 161.201 36.2924C167.161 43.7892 168.077 55.6938 166.047 66.8696C165.607 69.2529 158.881 86.167 152.539 97.2386C151.947 98.2683 152.342 75.2804 145.686 66.0945C142.312 61.4321 139.529 55.9136 132.641 51.3091C132.571 52.6164 136.653 56.1797 135.134 56.897C129.301 59.6389 112.871 56.8045 105.287 54.884C107.467 57.1284 109.693 58.7597 108.859 59.5695C106.25 62.1263 89.7261 58.1349 79.5337 51.2976C77.0638 59.4422 73.5736 68.0728 69.6543 70.3866C59.1604 76.553 63.729 102.572 60.9809 98.7426C48.3418 81.2038 51.5306 58.4936 51.5306 58.4936C50.3015 60.4256 48.91 62.1031 47.9476 64.1046C46.2083 67.7257 45.0139 34.4413 60.8649 30.126C60.8649 30.126 58.3603 29.2583 51.9248 30.4615C49.5594 30.9012 56.563 24.4109 64.1233 23.5663C64.3436 20.2923 65.8046 7.13814 75.452 2.89227C79.9279 0.925515 87.2562 -0.416505 86.317 0.150383C81.7252 2.92698 80.4033 6.79107 80.4033 6.79107C115.688 -9.81065 131.736 7.84386 145.558 18.904C149.744 22.259 158.592 28.9575 165.734 29.5129Z" fill="#35253D"/>
<path fill-rule="evenodd" clip-rule="evenodd" d="M85.1817 73.0248C89.8778 73.0248 94.1334 74.9222 97.2062 77.9996C100.279 81.0654 102.192 85.3113 102.192 89.9968C102.192 94.6823 100.291 98.9282 97.2062 101.994C94.1334 105.06 89.8778 106.969 85.1817 106.969C80.4855 106.969 76.23 105.071 73.1572 101.994C70.0844 98.9282 68.1711 94.6823 68.1711 89.9968C68.1711 85.3113 70.0728 81.0654 73.1572 77.9996C76.23 74.9222 80.4855 73.0248 85.1817 73.0248ZM95.177 80.0242C92.6144 77.4674 89.0893 75.894 85.1817 75.894C81.274 75.894 77.749 77.4674 75.1864 80.0242C72.6354 82.581 71.0468 86.098 71.0468 89.9968C71.0468 93.8956 72.6354 97.4126 75.1864 99.9694C77.749 102.526 81.274 104.1 85.1817 104.1C89.0893 104.1 92.6144 102.526 95.177 99.9694C97.7396 97.4126 99.3165 93.8956 99.3165 89.9968C99.3165 86.1095 97.728 82.581 95.177 80.0242Z" fill="#2E1E11"/>
<path fill-rule="evenodd" clip-rule="evenodd" d="M128.814 73.0248C133.511 73.0248 137.766 74.9222 140.839 77.9996C143.912 81.0654 145.825 85.3113 145.825 89.9968C145.825 94.6823 143.923 98.9282 140.839 101.994C137.766 105.06 133.511 106.969 128.814 106.969C124.118 106.969 119.863 105.071 116.79 101.994C113.717 98.9282 111.804 94.6823 111.804 89.9968C111.804 85.3113 113.706 81.0654 116.79 77.9996C119.863 74.9222 124.118 73.0248 128.814 73.0248ZM138.81 80.0242C136.247 77.4674 132.722 75.894 128.814 75.894C124.907 75.894 121.382 77.4674 118.819 80.0242C116.257 82.581 114.68 86.098 114.68 89.9968C114.68 93.8956 116.257 97.4126 118.819 99.9694C121.382 102.526 124.907 104.1 128.814 104.1C132.722 104.1 136.247 102.526 138.81 99.9694C141.372 97.4126 142.949 93.8956 142.949 89.9968C142.949 86.1095 141.361 82.581 138.81 80.0242Z" fill="#2E1E11"/>
<path fill-rule="evenodd" clip-rule="evenodd" d="M69.0979 88.6083C69.6893 88.4001 70.3502 88.7009 70.559 89.3025C70.7677 89.8925 70.4662 90.5519 69.8632 90.7602L59.7288 94.4045C59.1374 94.6127 58.4765 94.3119 58.2678 93.7103C58.059 93.1203 58.3605 92.4608 58.9635 92.2526L69.0979 88.6083Z" fill="#2E1E11"/>
<path fill-rule="evenodd" clip-rule="evenodd" d="M144.168 90.7599C143.577 90.5517 143.264 89.8923 143.473 89.3022C143.681 88.7122 144.342 88.3998 144.934 88.6081L155.068 92.2524C155.659 92.4606 155.973 93.12 155.764 93.7101C155.555 94.3001 154.894 94.6125 154.303 94.4042L144.168 90.7599Z" fill="#2E1E11"/>
<path fill-rule="evenodd" clip-rule="evenodd" d="M100.998 88.6777C100.674 89.2214 99.9664 89.3834 99.4214 89.0595C98.8764 88.724 98.7141 88.0298 99.0388 87.4861C99.0388 87.4745 100.987 84.1773 106.993 84.1773C113 84.1773 114.948 87.4745 114.948 87.4861C115.272 88.0298 115.11 88.7355 114.565 89.0595C114.02 89.395 113.313 89.2214 112.988 88.6777C112.988 88.6661 111.701 86.4796 106.993 86.4796C102.297 86.4796 101.01 88.6661 100.998 88.6777Z" fill="#2E1E11"/>
<path fill-rule="evenodd" clip-rule="evenodd" d="M125.001 111.908C117.777 114.592 95.815 114.535 88.9968 112.232C92.7654 125.93 121.337 125.71 125.001 111.908Z" fill="white"/>
<path fill-rule="evenodd" clip-rule="evenodd" d="M84.8336 142.567C84.2422 142.312 82.7348 142.335 82.7348 143.4C82.7348 144.545 83.8132 148.502 83.0363 151.417C82.2246 154.495 80.8564 157.028 82.4334 157.641C89.6805 160.453 97.5886 161.934 105.52 162.096C114.425 162.281 123.365 160.788 131.494 157.641C133.071 157.028 131.703 154.495 130.891 151.417C130.114 148.502 131.192 144.545 131.204 143.4C131.204 142.335 129.696 142.312 129.105 142.567C114.959 148.618 98.9917 148.618 84.8336 142.567Z" fill="#67627E"/>
<path fill-rule="evenodd" clip-rule="evenodd" d="M46.9738 208.522C46.9738 208.048 47.368 207.666 47.8434 207.666C48.3188 207.666 48.7015 208.059 48.7015 208.534L48.4928 232.297C48.4928 232.771 48.0985 233.153 47.6231 233.153C47.1477 233.153 46.7651 232.76 46.7651 232.285L46.9738 208.522Z" fill="#383546"/>
<path fill-rule="evenodd" clip-rule="evenodd" d="M165.515 208.522C165.515 208.048 165.909 207.666 166.385 207.666C166.86 207.666 167.243 208.059 167.243 208.534L167.034 232.297C167.034 232.771 166.64 233.153 166.164 233.153C165.689 233.153 165.306 232.76 165.306 232.285L165.515 208.522Z" fill="#383546"/>
<path fill-rule="evenodd" clip-rule="evenodd" d="M86.6533 145.25C86.6649 144.938 86.9316 144.683 87.2447 144.695C87.5577 144.707 87.8128 144.973 87.8012 145.285C87.7781 146.072 87.7665 146.801 87.7549 147.541C87.7433 149.057 87.7201 150.595 87.5693 152.412C87.3258 155.281 85.7836 157.676 85.7836 157.687C85.6097 157.953 85.2618 158.034 84.9951 157.861C84.7284 157.687 84.6473 157.34 84.8212 157.074C84.8212 157.074 86.2127 154.922 86.433 152.319C86.5837 150.491 86.6069 148.999 86.6185 147.529C86.6185 146.777 86.6301 146.014 86.6533 145.25Z" fill="#58556C"/>
<path fill-rule="evenodd" clip-rule="evenodd" d="M91.3742 146.928C91.3858 146.615 91.6525 146.361 91.9655 146.372C92.2786 146.384 92.5337 146.65 92.5221 146.963C92.4989 147.749 92.4873 148.478 92.4757 149.218C92.4641 150.734 92.4409 152.273 92.2902 154.089C92.0467 156.958 90.5045 159.353 90.5045 159.365C90.3306 159.631 89.9827 159.712 89.716 159.538C89.4493 159.365 89.3681 159.018 89.5421 158.751C89.5421 158.751 90.9335 156.588 91.1538 153.997C91.3046 152.169 91.3278 150.676 91.3394 149.207C91.3394 148.443 91.351 147.691 91.3742 146.928Z" fill="#58556C"/>
<path fill-rule="evenodd" clip-rule="evenodd" d="M96.3236 147.831C96.3352 147.518 96.6019 147.264 96.915 147.275C97.2281 147.287 97.4832 147.553 97.4716 147.865C97.4484 148.652 97.4368 149.381 97.4252 150.121C97.4136 151.637 97.3904 153.175 97.2397 154.992C96.9962 157.861 95.454 160.256 95.454 160.267C95.28 160.533 94.9322 160.614 94.6655 160.441C94.3988 160.267 94.3176 159.92 94.4916 159.654C94.4916 159.643 95.883 157.491 96.1033 154.899C96.2541 153.071 96.2772 151.579 96.2888 150.11C96.2888 149.358 96.2888 148.606 96.3236 147.831Z" fill="#58556C"/>
<path fill-rule="evenodd" clip-rule="evenodd" d="M101.416 148.744C101.427 148.432 101.694 148.177 102.007 148.189C102.32 148.2 102.575 148.466 102.564 148.779C102.541 149.565 102.529 150.294 102.517 151.035C102.506 152.55 102.483 154.089 102.332 155.905C102.088 158.774 100.546 161.169 100.546 161.181C100.372 161.447 100.024 161.528 99.7576 161.354C99.4909 161.181 99.4097 160.834 99.5837 160.568C99.5837 160.568 100.975 158.404 101.195 155.813C101.346 153.985 101.369 152.492 101.381 151.023C101.381 150.271 101.393 149.508 101.416 148.744Z" fill="#58556C"/>
<path fill-rule="evenodd" clip-rule="evenodd" d="M125.603 145.285C125.592 144.973 125.847 144.707 126.16 144.695C126.473 144.683 126.74 144.938 126.751 145.25C126.775 146.014 126.786 146.777 126.798 147.529C126.809 148.999 126.833 150.491 126.983 152.319C127.204 154.911 128.595 157.062 128.595 157.074C128.769 157.34 128.688 157.699 128.421 157.861C128.154 158.034 127.795 157.953 127.633 157.687C127.633 157.687 126.079 155.292 125.847 152.412C125.696 150.595 125.673 149.057 125.661 147.541C125.638 146.801 125.627 146.072 125.603 145.285Z" fill="#58556C"/>
<path fill-rule="evenodd" clip-rule="evenodd" d="M120.885 146.963C120.873 146.65 121.128 146.384 121.441 146.372C121.754 146.361 122.021 146.615 122.032 146.928C122.056 147.691 122.067 148.455 122.079 149.207C122.09 150.676 122.114 152.169 122.264 153.997C122.485 156.588 123.876 158.74 123.876 158.751C124.05 159.018 123.969 159.376 123.702 159.538C123.436 159.712 123.076 159.631 122.914 159.365C122.914 159.353 121.36 156.97 121.128 154.089C120.977 152.273 120.954 150.734 120.942 149.218C120.919 148.478 120.908 147.738 120.885 146.963Z" fill="#58556C"/>
<path fill-rule="evenodd" clip-rule="evenodd" d="M115.933 147.865C115.921 147.553 116.177 147.287 116.49 147.275C116.803 147.264 117.069 147.518 117.081 147.831C117.104 148.594 117.116 149.358 117.127 150.11C117.139 151.579 117.162 153.071 117.313 154.899C117.533 157.491 118.925 159.643 118.925 159.654C119.099 159.92 119.017 160.267 118.751 160.441C118.484 160.614 118.125 160.533 117.962 160.267C117.962 160.256 116.408 157.873 116.177 154.992C116.026 153.175 116.003 151.637 115.991 150.121C115.968 149.392 115.956 148.652 115.933 147.865Z" fill="#58556C"/>
<path fill-rule="evenodd" clip-rule="evenodd" d="M110.831 148.779C110.82 148.466 111.075 148.2 111.388 148.189C111.701 148.177 111.968 148.432 111.979 148.744C112.002 149.508 112.014 150.271 112.026 151.023C112.037 152.492 112.06 153.985 112.211 155.813C112.431 158.404 113.823 160.556 113.823 160.568C113.997 160.834 113.916 161.192 113.649 161.354C113.382 161.528 113.023 161.447 112.86 161.181C112.86 161.169 111.307 158.786 111.075 155.905C110.924 154.089 110.901 152.55 110.889 151.035C110.866 150.294 110.854 149.565 110.831 148.779Z" fill="#58556C"/>
<path fill-rule="evenodd" clip-rule="evenodd" d="M106.192 148.768C106.192 148.455 106.447 148.189 106.76 148.189C107.073 148.189 107.328 148.444 107.328 148.768L107.352 160.881C107.352 161.193 107.096 161.448 106.783 161.448C106.47 161.448 106.215 161.193 106.215 160.881L106.192 148.768Z" fill="#58556C"/>
<path fill-rule="evenodd" clip-rule="evenodd" d="M75.5696 25.0814C75.4189 24.8038 75.5232 24.4567 75.8015 24.3063C76.0798 24.1559 76.4277 24.26 76.5784 24.5377C79.744 30.3917 86.307 35.5284 93.8789 39.6354C103.538 44.8647 114.797 48.3701 122.74 49.4692C123.053 49.5155 123.273 49.8047 123.227 50.1171C123.181 50.4294 122.891 50.6493 122.578 50.603C114.519 49.4923 103.097 45.9406 93.3223 40.6535C85.5881 36.4423 78.8511 31.1437 75.5696 25.0814Z" fill="#432D4C"/>
<path fill-rule="evenodd" clip-rule="evenodd" d="M82.0049 20.0609C81.6918 20.0609 81.4251 19.8064 81.4251 19.4824C81.4251 19.1701 81.6802 18.904 82.0049 18.904C91.258 18.904 99.8735 20.5005 107.724 23.1036C116.965 26.1694 125.152 30.6235 132.051 35.4825C139.321 40.6077 145.189 46.3922 149.409 53.4147C153.63 60.4372 156.204 68.6629 156.888 78.6817C156.912 78.9941 156.668 79.2718 156.355 79.2949C156.042 79.318 155.764 79.0751 155.74 78.7627C155.08 68.9405 152.563 60.8652 148.424 54.0047C144.296 47.1442 138.533 41.4638 131.39 36.4312C124.572 31.6185 116.49 27.2222 107.364 24.2026C99.63 21.6458 91.1421 20.0609 82.0049 20.0609Z" fill="#432D4C"/>
<path fill-rule="evenodd" clip-rule="evenodd" d="M86.2026 14.843C85.9127 14.9818 85.5764 14.8546 85.4373 14.5653C85.3097 14.2761 85.4257 13.9406 85.7156 13.8018C109.312 2.94991 124.688 13.7555 137.942 23.0571C141.212 25.3593 144.365 27.569 147.45 29.316C147.728 29.4664 147.821 29.825 147.67 30.0911C147.519 30.3688 147.16 30.4613 146.893 30.3109C143.751 28.5293 140.585 26.308 137.292 23.9942C124.282 14.8661 109.208 4.28036 86.2026 14.843Z" fill="#432D4C"/>
<path fill-rule="evenodd" clip-rule="evenodd" d="M70.838 34.7071C70.8264 34.3947 71.0699 34.1171 71.383 34.1055C71.6961 34.0939 71.9743 34.3369 71.9859 34.6492C72.1483 37.7266 71.2786 42.1113 69.7596 46.4382C68.2986 50.6262 66.2346 54.7795 63.9503 57.6718C59.5092 63.2944 59.4396 70.2128 59.4396 70.2359C59.4396 70.5483 59.1729 70.8028 58.8599 70.8028C58.5468 70.8028 58.2917 70.5367 58.2917 70.2244C58.2917 70.2012 58.3613 62.8895 63.0458 56.9661C65.249 54.178 67.255 50.1403 68.6696 46.068C70.1423 41.8684 70.9887 37.6457 70.838 34.7071Z" fill="#432D4C"/>
</g>
<defs>
<clipPath id="clip0_380_475">
<rect width="199.874" height="233.037" fill="white" transform="translate(7.01681) scale(1.00045)"/>
</clipPath>
</defs>
</svg>
